{"title":"Coal s01e10{{ukrg}}","uid":6485615,"size":384373167,"categoryP":"video","categoryS":"tv_shows","magnet":"?xt=urn:btih:ec31ab651f8f4991e3314623d7976351efa078f5&amp;dn=Coal+s01e10%7B%7Bukrg%7D%7D&amp;tr=udp%3A%2F%2Ftracker.openbittorrent.com%3A80&amp;tr=udp%3A%2F%2Fopen.demonii.com%3A1337&amp;tr=udp%3A%2F%2Ftracker.coppersurfer.tk%3A6969&amp;tr=udp%3A%2F%2Fexodus.desync.com%3A6969","seeders":0,"leechers":1,"uploader":"number1don","files":2,"time":1308696502,"description":"[img]http://www.leetleech.org/images/00424255175849953984.png[/img]\n[img]http://www.leetleech.org/images/29785629321434888662.png[/img]\n[img]http://www.leetleech.org/images/62089831579474344551.png[/img]\n[img]http://www.leetleech.org/images/15519292224552544032.png[/img]\n\n\nGeneral\nComplete name                    : E:\\upload\\files\\Coal s01e10{{ukrg}}\\coal.s01e10{{ukrg}}.avi\nFormat                           : AVI\nFormat/Info                      : Audio Video Interleave\nFile size                        : 367 MiB\nDuration                         : 42mn 24s\nOverall bit rate                 : 1 208 Kbps\nWriting application              : VirtualDubMod 1.5.4.1 (build 2178/release)\nWriting library                  : VirtualDubMod build 2178/release\n\nVideo\nID                               : 0\nFormat                           : MPEG-4 Visual\nFormat profile                   : Advanced Simple@L5\nFormat settings, BVOP            : 1\nFormat settings, QPel            : No\nFormat settings, GMC             : No warppoints\nFormat settings, Matrix          : Custom\nCodec ID                         : XVID\nCodec ID/Hint                    : XviD\nDuration                         : 42mn 24s\nBit rate                         : 1 071 Kbps\nWidth                            : 608 pixels\nHeight                           : 352 pixels\nDisplay aspect ratio             : 16:9\nFrame rate                       : 29.970 fps\nColor space                      : YUV\nChroma subsampling               : 4:2:0\nBit depth                        : 8 bits\nScan type                        : Progressive\nCompression mode                 : Lossy\nBits/(Pixel*Frame)               : 0.167\nStream size                      : 325 MiB (89%)\nWriting library                  : XviD 64\n\nAudio\nID                               : 1\nFormat                           : MPEG Audio\nFormat version                   : Version 1\nFormat profile                   : Layer 3\nMode                             : Joint stereo\nMode extension                   : MS Stereo\nCodec ID                         : 55\nCodec ID/Hint                    : MP3\nDuration                         : 42mn 24s\nBit rate mode                    : Variable\nBit rate                         : 128 Kbps\nChannel(s)                       : 2 channels\nSampling rate                    : 48.0 KHz\nCompression mode                 : Lossy\nStream size                      : 37.5 MiB (10%)\nAlignment                        : Aligned on interleaves\nInterleave, duration             : 24 ms (0.72 video frame)\nInterleave, preload duration     : 543 ms\nWriting library                  : LAME3.98r\nEncoding settings                : -m j -V 4 -q 2 -lowpass 17 --abr 128\n\n\n[img]http://www.leetleech.org/images/69317347414507505649.png[/img]","torrent":{"xt":"urn:btih:ec31ab651f8f4991e3314623d7976351efa078f5","amp;dn":"Coal+s01e10%7B%7Bukrg%7D%7D","amp;tr":["udp%3A%2F%2Ftracker.openbittorrent.com%3A80","udp%3A%2F%2Fopen.demonii.com%3A1337","udp%3A%2F%2Ftracker.coppersurfer.tk%3A6969","udp%3A%2F%2Fexodus.desync.com%3A6969"],"infoHash":"ec31ab651f8f4991e3314623d7976351efa078f5","infoHashBuffer":{"type":"Buffer","data":[236,49,171,101,31,143,73,145,227,49,70,35,215,151,99,81,239,160,120,245]},"announce":[],"urlList":[]}}